<svg fill='rgb(202,164,126)' class="fill" xmlns="http://www.w3.org/2000/svg" width="70" height="70" viewBox="0 0 57 50"><path d="M16.3492 28.9979C17.9306 28.9979 19.4592 28.8957 20.9057 28.7056V12.8511C19.4593 12.6612 17.9306 12.559 16.3492 12.559C7.3199 12.559 0 15.8789 0 19.9742V21.5825C0 25.6777 7.3199 28.9979 16.3492 28.9979Z"></path><path d="M16.3492 37.2755C17.9306 37.2755 19.4592 37.1733 20.9057 36.9835V32.3363C19.4589 32.5263 17.9311 32.6298 16.3492 32.6298C8.46754 32.6298 1.88908 30.1001 0.343854 26.7333C0.118828 27.2238 0 27.7315 0 28.2522V29.8603C0 33.9556 7.3199 37.2755 16.3492 37.2755Z"></path><path d="M20.9057 40.9774V40.6162C19.4589 40.8062 17.9311 40.9097 16.3492 40.9097C8.46754 40.9097 1.88908 38.38 0.343854 35.0132C0.118828 35.5035 0 36.0112 0 36.5319V38.14C0 42.2355 7.3199 45.5554 16.3492 45.5554C18.1549 45.5554 19.8917 45.4223 21.5159 45.177C21.1133 44.3536 20.9057 43.4851 20.9057 42.5854V40.9774Z"></path><path d="M39.9215 0C30.892 0 23.5723 3.31974 23.5723 7.41525V9.02338C23.5723 13.1187 30.892 16.4386 39.9215 16.4386C48.9508 16.4386 56.2707 13.1187 56.2707 9.02338V7.41525C56.2707 3.31974 48.9508 0 39.9215 0Z"></path><path d="M39.9215 20.0722C32.0398 20.0722 25.4613 17.5426 23.916 14.1757C23.6911 14.666 23.5723 15.1737 23.5723 15.6944V17.3025C23.5723 21.398 30.892 24.7179 39.9215 24.7179C48.9508 24.7179 56.2707 21.398 56.2707 17.3025V15.6944C56.2707 15.1737 56.1519 14.666 55.9268 14.1757C54.3817 17.5426 47.8032 20.0722 39.9215 20.0722Z"></path><path d="M39.9215 28.3504C32.0398 28.3504 25.4613 25.8208 23.916 22.4539C23.6911 22.9442 23.5723 23.4521 23.5723 23.9727V25.5809C23.5723 29.6764 30.892 32.9963 39.9215 32.9963C48.9508 32.9963 56.2707 29.6764 56.2707 25.5809V23.9727C56.2707 23.4521 56.1519 22.9442 55.9268 22.4539C54.3817 25.8208 47.8032 28.3504 39.9215 28.3504Z"></path><path d="M39.9215 37.0754C32.0398 37.0754 25.4613 34.5456 23.916 31.1788C23.6911 31.6693 23.5723 32.177 23.5723 32.6976V34.3058C23.5723 38.4012 30.892 41.7211 39.9215 41.7211C48.9508 41.7211 56.2707 38.4012 56.2707 34.3058V32.6976C56.2707 32.177 56.1519 31.669 55.9268 31.1788C54.3817 34.5455 47.8032 37.0754 39.9215 37.0754Z"></path><path d="M39.9215 45.3543C32.0398 45.3543 25.4613 42.8247 23.916 39.4579C23.6911 39.9484 23.5723 40.4563 23.5723 40.9765V42.5848C23.5723 46.6801 30.892 50 39.9215 50C48.9508 50 56.2707 46.6801 56.2707 42.5848V40.9765C56.2707 40.4558 56.1519 39.948 55.9268 39.4578C54.3817 42.8246 47.8032 45.3543 39.9215 45.3543Z"></path></svg>