<svg fill='rgb(202,164,126)' xmlns="http://www.w3.org/2000/svg" width="80" height="80" viewBox="0 0 108 102" class="fill"><path d="M84.4453 0.375C81.2344 0.703125 77.3203 2.17969 74.8125 4.00781C73.9219 4.66406 73.6875 4.96875 73.6875 5.50781C73.6875 6.28125 74.3203 6.9375 75.0937 6.9375C75.3984 6.9375 76.2891 6.51562 77.0625 6.02344C80.1094 4.03125 83.0391 3.1875 86.8125 3.1875C93.0937 3.1875 98.4141 6.16406 101.883 11.6484C103.711 14.5078 104.625 17.7891 104.625 21.4688C104.625 30.4453 99.7031 41.1328 90.4922 52.125C88.7344 54.2109 87.9844 54.75 86.7656 54.75C85.6406 54.75 84.7734 54.1172 82.9219 51.9141C75.7031 43.3594 70.7812 34.0547 69.3516 26.2734C68.8359 23.6016 68.7891 19.7578 69.2109 17.4141C69.5156 15.7266 69.5156 15.5625 69.1172 15.1406C68.6016 14.5547 67.5469 14.5312 67.0547 15.0938C66.3984 15.8203 65.8828 19.6172 66.0469 22.4766C66.6328 32.2969 71.6719 43.1016 80.625 53.7422C83.2969 56.9062 84.375 57.5625 86.7891 57.5625C89.5078 57.5391 90.5391 56.7891 94.4297 51.9375C96.5625 49.2891 100.195 43.875 101.625 41.2734C106.875 31.5938 108.703 22.6875 106.805 15.7266C106.266 13.7344 104.812 10.6641 103.594 8.97656C102.398 7.28906 99.8672 4.78125 98.2266 3.67969C94.5 1.125 89.25 -0.117188 84.4453 0.375Z"></path><path d="M69.6094 9.23444C68.9531 10.1954 68.8594 10.6876 69.2344 11.3907C69.5156 11.9063 70.5234 12.1876 71.0859 11.8594C71.6484 11.5548 72.5156 10.1954 72.5156 9.586C72.5156 8.92975 71.7891 8.34381 70.9453 8.34381C70.3828 8.34381 70.1016 8.53131 69.6094 9.23444Z"></path><path d="M83.0156 9.82035C81.3281 10.4063 79.125 11.7891 78.3516 12.75C77.7891 13.4766 77.7891 14.25 78.3281 14.7422C79.0312 15.3985 79.9688 15.2344 81.0234 14.2969C81.5391 13.8282 82.5469 13.1719 83.2734 12.8204C84.3984 12.3047 84.8906 12.211 86.8125 12.211C88.7344 12.211 89.2266 12.3047 90.375 12.8438C92.2266 13.711 93.7031 15.1407 94.6172 16.9922C95.2969 18.3985 95.3672 18.7266 95.3672 20.7657C95.3672 22.6875 95.2734 23.1797 94.7344 24.3282C93.9375 26.0625 92.2266 27.75 90.4453 28.6407C89.1797 29.25 88.8047 29.3204 86.8125 29.3204C84.8438 29.2969 84.4219 29.2266 83.1797 28.6172C80.4375 27.3047 78.4922 24.586 78.2109 21.7735C78.0469 19.9688 77.6484 19.3594 76.6641 19.3594C75.5625 19.3594 75.3281 19.711 75.3281 21.3516C75.3281 25.7813 78.5391 30.0938 82.9453 31.6641C84.6797 32.2735 88.0547 32.3907 89.7656 31.8985C94.9453 30.3985 98.2969 26.0391 98.2969 20.7891C98.2969 15.5157 95.0391 11.1094 90.1172 9.65629C88.1719 9.09379 84.9609 9.1641 83.0156 9.82035Z"></path><path d="M7.78125 18.3985C4.00781 19.3829 1.125 22.6641 0.539062 26.6954C0.234375 28.8047 0.257812 91.2657 0.585937 93.1875C1.28906 97.6407 4.64062 100.992 9.04687 101.625C11.1094 101.93 77.5547 101.906 79.6172 101.625C82.5938 101.18 85.2188 99.4453 86.7422 96.9141C88.2188 94.4532 88.2188 94.336 88.2188 78.7032C88.2188 69.3985 88.125 64.4063 87.9844 64.1016C87.7031 63.586 86.0391 63.4688 85.7109 63.961C85.6172 64.1016 85.4766 70.7813 85.4062 78.7735L85.2891 93.3047L84.7266 94.5469C84.0469 96.0703 82.0781 97.8985 80.5547 98.4844C79.6172 98.8125 78.3984 98.9063 73.4062 99L67.3594 99.0938V80.6016C67.3594 65.0157 67.3125 61.8985 67.0078 60.7735C66 56.9063 63.375 53.6719 59.8359 51.9844C58.7578 51.4688 57.2344 50.9297 56.4844 50.7891C55.6875 50.6485 51.9375 50.5313 47.7656 50.5313C43.1484 50.5313 40.1953 50.4375 39.7734 50.2735C38.8359 49.9219 38.0625 49.1485 37.5703 48.0704C37.1719 47.2032 37.125 46.336 37.125 36.6563V26.1797L36.6094 25.8282C35.9062 25.336 35.3438 25.3594 34.7812 25.9219C34.2891 26.4141 34.2891 26.6016 34.3594 37.4766C34.4297 48.3516 34.4297 48.5625 34.9453 49.5C35.7422 50.9766 36.4922 51.7735 37.875 52.5235L39.1172 53.2266L47.5547 53.3672C52.3828 53.4375 56.2969 53.6016 56.6953 53.7422C60.2812 54.9844 63.0469 57.7266 64.1016 61.1016C64.5234 62.4375 64.5469 63.5157 64.5469 80.7891V99.0703L36.8438 99L9.11719 98.9297L7.71094 98.2735C5.88281 97.4063 4.875 96.4453 4.05469 94.711L3.375 93.3047V60C3.375 22.6172 3.23437 25.5 5.15625 23.3672C5.76562 22.6875 6.77344 21.9141 7.52344 21.5391C8.71875 20.9766 9.16406 20.8829 11.7891 20.8125C14.9766 20.7188 15.5625 20.4844 15.5625 19.4297C15.5625 19.1485 15.3516 18.6797 15.0938 18.4219C14.6719 18 14.3203 17.9532 12 17.9766C10.2891 17.9766 8.8125 18.1172 7.78125 18.3985Z"></path><path d="M21.8906 18.4219C21.3984 18.9141 21.3984 19.0547 21.4688 36.8907L21.5391 54.8673L22.1953 56.7423C23.6953 61.0548 26.6719 64.0313 31.0313 65.5548C32.4609 66.0469 33.0234 66.0938 40.9219 66.211C48.8906 66.3516 49.3125 66.3751 49.9219 66.8438C50.8594 67.5235 51.4219 68.3673 51.6563 69.4219C51.7734 69.9141 51.8906 75.6563 51.8906 82.1719C51.8906 91.0782 51.9609 94.1016 52.1719 94.3126C52.3359 94.4766 52.8047 94.5938 53.2266 94.5938C54.7734 94.5938 54.7266 94.9219 54.6563 80.9766L54.5859 68.461L53.9297 67.1251C53.5547 66.3751 52.8516 65.4141 52.3125 64.9688C50.6016 63.4923 50.0625 63.4219 41.9531 63.4219C36.5859 63.4219 34.2422 63.3282 33.1172 63.0938C28.5938 62.1329 25.0547 58.3126 24.4688 53.7657C24.3516 52.8282 24.2344 45.0235 24.2344 36.3985V20.7657H41.3203C60.1172 20.7657 59.1563 20.836 59.1563 19.3594C59.1563 17.9063 59.9297 17.9532 40.2422 17.9532C22.5469 17.9532 22.3594 17.9532 21.8906 18.4219Z"></path><path d="M8.53125 75.6094C7.94531 76.1954 7.94531 76.8048 8.48438 77.461C8.88281 77.9532 9 77.9532 22.1484 78.0001L35.3906 78.0704L36.3516 78.7032C37.9922 79.7813 38.0625 80.1094 38.0625 87.2579C38.0625 94.4532 38.1094 94.6876 39.6563 94.5469C41.0859 94.4297 41.1328 94.1719 41.0625 86.8594C40.9922 80.6719 40.9453 80.3673 40.4297 79.1719C39.7031 77.5548 37.9453 75.961 36.3516 75.4923C35.3672 75.1876 33.0703 75.1407 22.0781 75.1407C9.30469 75.1407 9 75.1407 8.53125 75.6094Z"></path></svg>