<svg class='fill pd' xmlns="http://www.w3.org/2000/svg"  fill='rgb(202,164,126)' width="80" height="80" viewBox="0 0 41 50" >
<path d="M15.5676 20.2327C12.8432 17.5631 11.0842 12.5919 10.9922 7.52359C10.9922 1.82728 15.3712 -0.880679 20.538 0.265411C24.7047 -0.984264 29.4254 2.33818 29.4254 6.89277C29.4254 11.5623 29.5546 14.7222 26.7037 18.6416C23.7794 22.6611 18.7166 23.7631 15.5676 20.2327Z" />
<path fill-rule="evenodd" clip-rule="evenodd" d="M14.3521 42.306C14.3521 45.5243 9.81198 45.4683 9.81198 42.4472C9.81198 40.2922 10.9404 42.4628 9.82786 38.9012C8.81072 35.6432 8.46776 30.1746 9.41237 26.7889C9.52992 26.3681 9.77329 25.6945 9.81198 25.2219C8.40963 25.3418 5.1488 26.6688 4.03276 27.48C3.19326 28.0896 2.625 28.5956 2.15195 29.6438C0.900416 32.4114 0.366576 36.5677 0.0194831 39.7392C-0.23985 42.1094 2.17544 42.3023 2.17544 44.9416C2.17544 45.5696 3.02864 46.353 3.6898 46.353L15.5678 49.9999L28.716 49.8139C29.1329 49.8139 33.8557 47.7269 34.0519 47.394C34.5125 46.6113 35.179 47.4154 35.1125 46.6015C34.9977 45.1991 40.6042 43.3293 40.4134 41.9624C40.32 41.2996 40.2514 40.6624 40.2155 40.047C40.1725 39.3147 40.0294 38.6768 39.9645 38.0458C39.7066 35.5549 39.2226 33.1343 38.48 30.8159C37.6461 28.2165 36.4775 27.4906 34.2095 26.4437C33.5153 26.1231 31.6601 25.431 30.8608 25.363C31.2384 26.1706 30.8726 29.9743 30.5855 30.5874C34.6395 32.7887 33.4703 35.2923 33.3368 38.2119C33.2517 40.0761 33.1316 45.5531 30.5855 45.5531C30.0103 45.5531 28.6598 45.7057 28.6598 44.8477C28.6598 43.7264 29.2268 44.1296 30.1423 43.9691C30.7867 43.8569 30.8198 43.615 30.9085 43.4852C31.5902 42.4797 31.7458 39.5737 31.8198 38.2075C31.9035 36.6513 32.3383 35.1689 31.8052 33.8532C31.0508 31.9902 28.2746 30.8202 26.2854 33.0925C25.6892 33.7729 25.492 34.645 25.1699 35.618C24.477 37.7108 23.4315 39.4991 23.4315 41.6004C23.4315 43.2744 24.9451 42.0084 24.9451 43.7179C24.9451 44.9706 21.7809 44.1445 21.7809 41.741C21.7809 40.0378 22.6963 37.8032 23.2731 36.2134C23.5061 35.5712 23.6797 35.1319 23.8961 34.4528C24.2812 33.2429 24.7251 32.2437 25.5701 31.5114C26.6031 30.6172 27.2378 30.3049 29.0716 30.3049C29.5128 28.3626 29.6512 26.7453 29.2093 24.7987C28.2032 24.7122 27.1161 24.0308 26.1827 23.9514C26.0056 24.7319 25.6427 25.6957 25.377 26.3719C24.4913 28.6294 23.8801 29.9947 22.6852 32.0804L22.056 33.1286C22.056 32.297 21.7462 31.148 21.6038 30.2027C21.2207 27.6501 21.5374 29.1567 21.9177 27.4805C21.2794 27.042 20.6924 26.3152 20.1296 25.9279C19.3993 26.3245 18.9348 26.978 18.2031 27.4805C19.0384 29.2666 18.7576 28.8593 18.4195 30.95C18.3027 31.6723 18.1188 32.4835 18.0663 33.1286C18.0442 33.103 18.0144 33.0277 18.0061 33.049L17.4909 32.1663C16.3679 30.2481 14.2272 25.8172 14.0766 23.9514C13.6762 23.9599 12.0103 24.4097 11.7338 24.7937C10.7989 26.0861 10.268 31.0209 10.4788 33.0079C10.6897 34.9913 10.6717 36.7336 11.4012 38.6979C12.2281 40.9225 11.2552 39.6388 12.9839 40.3208C13.5859 40.559 14.3521 41.4693 14.3521 42.306Z" />
</svg>