<svg fill='rgb(202,164,126)' xmlns="http://www.w3.org/2000/svg" width="80" height="80" viewBox="0 0 103 119" class="fill"><path d="M86.125 1.15627C83.5703 2.53909 76.8906 12.9453 75.2265 18.2188C73.5859 23.375 74.9453 28.7422 78.8125 32.2813C82.2812 35.4688 87.1328 36.711 91.5859 35.586C96.5078 34.3203 99.9765 31.1563 101.477 26.5625C102.062 24.7344 102.109 24.3594 101.992 22.0391C101.852 19.1328 101.43 17.6328 99.7187 14.1172C97.3984 9.33596 92.2422 1.97659 90.6719 1.22659C89.1953 0.52346 87.3906 0.500023 86.125 1.15627ZM89.0312 3.82815C89.2422 3.89846 90.25 5.11721 91.2812 6.52346C94.8672 11.375 97.2812 15.6172 98.4531 19.086C98.9687 20.6563 99.0625 21.2188 98.9687 23.0235C98.8515 25.7656 97.9844 27.711 96.039 29.6797C91.7969 33.875 85.3281 34.0156 80.9219 29.961C78.6953 27.9219 77.2422 24.3125 77.5937 21.7344C78.0859 17.9375 80.664 12.875 85.2344 6.68752C87.4375 3.71096 87.8594 3.38284 89.0312 3.82815Z"></path><path d="M89.6172 19.1562L86.5 21.9687L85.7735 21.2656C83.9453 19.4844 81.8125 21.4062 83.4531 23.375C84.2031 24.2656 85.6328 25.0156 86.5235 25.0156C87.625 24.9922 88.3281 24.5234 91.1406 21.9922C95.1953 18.3828 95.5703 17.8203 94.5625 16.8125C93.6016 15.8516 92.9688 16.1328 89.6172 19.1562Z"></path><path d="M3.06248 8.96097C1.93748 9.35941 0.976542 10.25 0.437479 11.4453C0.0390416 12.3594 0.0624791 13.6719 1.25779 54.2657C2.19529 86.0938 2.57029 96.4297 2.80467 97.3203C2.99217 97.9532 3.46092 98.8672 3.83592 99.336C4.65623 100.297 6.32029 101.188 7.37498 101.188C8.05467 101.188 8.0781 101.211 8.0781 102.289C8.0781 103.625 8.52342 106.555 9.32029 110.445C9.62498 111.992 9.99998 113.961 10.1406 114.828C10.2578 115.672 10.5625 116.656 10.7969 116.961C12.2265 118.883 15.3437 118.836 16.7969 116.891C17.0781 116.492 17.3594 115.461 17.5703 113.961C17.7578 112.672 18.1562 110.398 18.4844 108.922C18.9531 106.719 19.5625 102.523 19.5625 101.422C19.5625 101.305 19.8437 101.188 20.2187 101.188C21.1328 101.164 22.6094 100.414 23.4765 99.5235C25.0469 97.8594 24.8594 100.953 26.2422 54.7813C27.25 21.1016 27.4609 12.4766 27.2265 11.75C26.875 10.5547 25.539 9.26566 24.3437 8.89066C22.8906 8.46878 4.30467 8.51566 3.06248 8.96097ZM23.7812 12.0782C24.1328 12.3594 24.3437 12.8516 24.414 13.6016L24.5547 14.7032H13.8437H3.15623V13.6719C3.15623 12.8282 3.27342 12.5469 3.7656 12.1485C4.37498 11.6797 4.63279 11.6563 13.8203 11.6563C22.539 11.6563 23.289 11.6797 23.7812 12.0782ZM24.25 19.086C24.25 19.836 23.7344 37.5078 23.1015 58.3672C21.8594 99.7344 22.0234 96.875 20.5703 97.836C20.0078 98.211 19.2578 98.2578 13.7031 98.2578C6.7656 98.2578 6.48435 98.211 5.85154 96.6641C5.6406 96.1016 5.28904 86.4688 4.46873 58.6485C3.88279 38.1407 3.34373 20.5625 3.27342 19.5547L3.17967 17.75H13.7031H24.25V19.086ZM16.375 102.758C16.3047 103.648 15.8828 106.133 15.4375 108.336C15.0156 110.516 14.5703 112.93 14.5 113.656C14.1953 116.211 13.3047 115.953 12.9765 113.234C12.8359 112.227 12.4844 110.281 12.1797 108.922C11.5937 106.227 11.125 103.25 11.125 101.984V101.188H13.8203H16.539L16.375 102.758Z"></path><path d="M11.5937 46.7891C9.55465 47.4219 7.51558 49.2031 6.62496 51.1484C5.8984 52.7656 5.87496 55.7891 6.60152 57.4062C7.30465 58.9531 8.82808 60.5234 10.3984 61.2734C11.5468 61.8359 11.9921 61.9297 13.8203 61.9297C15.789 61.9297 16.0234 61.8828 17.4296 61.1094C20.2656 59.5859 21.5781 57.1484 21.3906 53.75C21.3203 52.2031 21.1562 51.6172 20.6171 50.5859C19.2109 48.0312 16.7031 46.5547 13.75 46.6016C12.8828 46.6016 11.9218 46.6953 11.5937 46.7891ZM15.7656 50.0703C17.4531 50.9375 18.3906 52.4609 18.3906 54.3594C18.3671 58.3438 13.7265 60.4062 10.7265 57.7578C9.10933 56.3281 8.64058 54.3594 9.48433 52.4844C10.6093 50 13.4687 48.8984 15.7656 50.0703Z"></path><path d="M42.0859 30.8281C39.6719 32.0469 39.6016 35.1172 41.9453 36.7344C43.4219 37.7422 43.7031 38.5625 43.7031 41.6094C43.7031 44.1406 43.7031 44.1875 43.1406 44.3281C42.8125 44.3984 42.25 44.75 41.8281 45.0781C40.4688 46.25 40.3984 46.5312 40.2578 53.0469L40.1172 59.0234L39.2266 59.4687C37.9844 60.1015 36.9766 61.4609 36.6719 62.8437C36.4844 63.6875 36.4375 71.6797 36.4844 89.2578L36.5547 114.477L37.2578 115.625C37.7969 116.492 38.2891 116.937 39.2266 117.406L40.5156 118.062H55C70.8203 118.062 70.4453 118.086 71.8984 116.703C72.2734 116.352 72.7656 115.672 73.0234 115.203C73.4688 114.336 73.4688 113.562 73.4219 88.2031L73.3516 62.0937L72.6484 61.0859C72.2734 60.5469 71.5 59.8672 70.9609 59.5625L69.9766 59.0469L69.8359 53.2344C69.6953 47.8672 69.6484 47.3047 69.1797 46.3437C68.5938 45.125 67.4688 44.2812 66.1562 44.0937L65.2656 43.9297V42.5C65.2656 40.8359 64.7969 38.7969 64.0703 37.414C62.9922 35.2812 60.5781 33.3125 58.2344 32.6562C57.1328 32.3515 44.1484 30.4062 43.2109 30.4062C43.0234 30.4062 42.5312 30.5937 42.0859 30.8281ZM50.7344 34.5312C57.8828 35.4922 58.6562 35.75 60.2969 37.5547C61.6094 38.9844 62.2188 40.5781 62.2188 42.6172V44H54.5078H46.7969L46.7031 40.8828C46.6328 38.2812 46.5391 37.6484 46.1172 36.8515C45.5547 35.7969 44.6641 34.8125 43.8203 34.25C43.1406 33.8047 43.2578 33.4062 44.0078 33.5703C44.2891 33.6172 47.3125 34.0625 50.7344 34.5312ZM66.25 47.4453C66.7422 48.0078 67.1172 57.875 66.6719 58.414C66.4141 58.7187 64.7969 58.7656 55.0938 58.7656C46.6094 58.7656 43.7266 58.6953 43.5156 58.4844C43.3281 58.2969 43.2344 57.0781 43.2578 54.4531C43.2578 49.8828 43.4922 47.5625 43.9609 47.2578C44.1484 47.1406 49 47.0469 55.0938 47.0469C65.1016 47.0469 65.9219 47.0703 66.25 47.4453ZM65.9219 83.7734C65.8516 108.219 65.9453 106.602 64.2812 107.797L63.5078 108.336H55.1406C47.0547 108.336 46.7734 108.312 46.1406 107.844C45.7891 107.586 45.2734 107.07 45.0156 106.719C44.5234 106.086 44.5234 105.875 44.4531 83.9375L44.4063 61.8125H55.1875H65.9688L65.9219 83.7734ZM41.3594 83.914C41.3594 102.641 41.4062 105.969 41.7109 106.977C42.1562 108.453 43.5859 110.117 45.0625 110.844C46.1641 111.383 46.2109 111.383 55.1875 111.383C64.0469 111.383 64.2344 111.383 65.1719 110.867C66.7422 110.023 67.5391 109.227 68.2422 107.797L68.8984 106.461L69.0156 84.1953L69.1328 61.9297L69.7891 62.5625L70.4219 63.1953V88.4609C70.3984 107.961 70.3516 113.82 70.1172 114.102C69.4375 114.992 69.1797 115.016 54.9062 115.016C39.7422 115.016 40.3281 115.062 39.7422 113.68C39.5547 113.187 39.4844 106.531 39.5312 88.1328L39.6016 63.2656L40.1641 62.6562C41.4062 61.3203 41.3594 60.3359 41.3594 83.914Z"></path><path d="M46.9844 72.4063C46.2812 72.7579 45.7422 73.2735 45.4141 73.8829C44.8984 74.7735 44.875 75.0782 44.875 80.1407C44.875 85.6485 44.9688 86.3516 45.8828 87.3126C47.0781 88.6016 47.3359 88.6485 54.0156 88.7188C61.0469 88.8126 62.3594 88.7188 63.4141 87.9923C65.125 86.8204 65.1484 86.7735 65.2188 80.6095C65.2891 75.172 65.2891 75.0313 64.7266 74.0235C64.3516 73.297 63.8594 72.8048 63.1562 72.4298C62.1719 71.8907 62.0078 71.8907 55.0938 71.8907C48.2266 71.8907 47.9922 71.9141 46.9844 72.4063ZM61.8438 75.3126C62.1719 75.6173 62.2188 76.4141 62.2188 80.3282C62.2188 84.8751 62.1953 84.9923 61.7031 85.3438C61.2578 85.672 60.2266 85.7188 55.0703 85.7188C49.9141 85.7188 48.8828 85.672 48.4375 85.3438C47.9453 84.9923 47.9219 84.8751 47.9219 80.2345C47.9219 76.8595 47.9922 75.4298 48.2031 75.2188C48.4141 75.0079 50.2422 74.9376 54.9766 74.9376C60.5781 74.9376 61.5391 74.9845 61.8438 75.3126Z"></path></svg>